<?xml version="1.0" standalone="no"?>
<!DOCTYPE svg PUBLIC "-//W3C//DTD SVG 20010904//EN"
 "http://www.w3.org/TR/2001/REC-SVG-20010904/DTD/svg10.dtd">
<svg version="1.0" xmlns="http://www.w3.org/2000/svg"
 width="1566.000000pt" height="236.000000pt" viewBox="0 0 1566.000000 236.000000"
 preserveAspectRatio="xMidYMid meet">

<g transform="translate(0.000000,236.000000) scale(0.100000,-0.100000)"
fill="#000000" stroke="none">
<path d="M680 1950 l0 -70 410 0 411 0 -3 -67 -3 -68 -748 -3 -747 -2 0 -65 0
-65 820 0 821 0 -3 -67 -3 -68 -682 -3 -683 -2 0 -65 0 -65 340 0 340 0 0 -70
0 -70 -135 0 -135 0 0 -70 0 -70 -270 0 -270 0 0 -65 0 -65 340 0 340 0 0 -70
0 -70 -70 0 -70 0 0 -70 0 -70 -205 0 -205 0 0 -65 0 -65 274 0 273 0 6 55 c8
78 47 156 112 224 127 133 307 166 472 85 109 -53 204 -183 221 -304 l7 -55
542 -3 541 -2 10 59 c49 276 337 427 581 305 119 -59 213 -189 228 -313 l6
-51 203 0 204 0 0 70 0 70 65 0 65 0 0 200 0 200 -65 0 -65 0 0 70 0 69 -32 9
c-18 5 -202 57 -409 117 l-376 107 -479 294 -479 294 -747 0 -748 0 0 -70z"/>
<path d="M5334 1640 c-131 -34 -237 -102 -321 -205 -205 -251 -181 -693 49
-890 60 -51 169 -102 258 -121 127 -27 334 -12 458 32 l42 16 0 124 c0 118 -4
136 -26 115 -5 -5 -44 -21 -87 -36 -79 -26 -215 -36 -283 -19 -189 45 -297
246 -254 472 23 123 109 232 215 271 114 43 260 37 374 -15 29 -13 55 -24 57
-24 2 0 4 58 4 129 l0 129 -32 11 c-116 36 -338 42 -454 11z"/>
<path d="M8066 1644 c-298 -66 -486 -308 -486 -626 0 -168 47 -313 136 -417
43 -50 151 -122 224 -149 179 -65 465 -52 653 31 l57 26 0 305 0 306 -260 0
-260 0 0 -110 0 -110 120 0 120 0 2 -100 c1 -55 2 -108 2 -117 2 -49 -211 -58
-312 -13 -68 30 -144 112 -167 181 -25 75 -34 170 -24 251 38 305 338 418 702
263 16 -7 17 1 15 121 l-3 129 -70 19 c-98 26 -353 32 -449 10z"/>
<path d="M8740 1530 l0 -110 170 0 170 0 0 -495 0 -495 140 0 140 0 0 495 0
495 170 0 170 0 0 110 0 110 -480 0 -480 0 0 -110z"/>
<path d="M6245 1309 c-70 -10 -158 -35 -197 -55 -28 -14 -28 -15 -28 -114 l0
-100 53 29 c107 60 266 83 335 47 34 -18 62 -61 62 -98 0 -23 -5 -25 -157 -46
-180 -25 -260 -55 -313 -120 -42 -50 -64 -130 -58 -207 11 -137 99 -223 239
-233 101 -7 171 17 237 82 l52 53 0 -59 0 -58 130 0 130 0 0 248 c0 275 -10
391 -38 455 -65 147 -222 209 -447 176z m223 -539 c-5 -102 -54 -159 -146
-168 -84 -8 -132 30 -132 103 0 73 37 101 165 121 128 19 118 24 113 -56z"/>
<path d="M7350 1297 c-42 -14 -99 -69 -125 -122 l-20 -40 -3 83 -3 82 -129 0
-130 0 0 -435 0 -435 130 0 130 0 0 203 c0 287 16 360 88 415 30 23 45 27 101
27 36 0 76 -4 89 -8 l23 -9 -3 124 -3 123 -55 2 c-30 1 -71 -4 -90 -10z"/>
<path d="M1154 780 c-56 -17 -127 -73 -159 -124 -25 -42 -31 -62 -34 -127 -4
-91 15 -142 75 -202 49 -49 98 -70 171 -75 243 -16 377 258 218 446 -57 68
-188 107 -271 82z"/>
<path d="M3046 774 c-72 -23 -150 -104 -172 -179 -51 -176 74 -345 255 -345
154 0 270 114 271 265 0 184 -179 315 -354 259z"/>
</g>
</svg>
